<?xml version="1.0" encoding="UTF-8"?><!DOCTYPE svg PUBLIC "-//W3C//DTD SVG 1.1//EN" "http://www.w3.org/Graphics/SVG/1.1/DTD/svg11.dtd"><svg xmlns="http://www.w3.org/2000/svg" xmlns:xlink="http://www.w3.org/1999/xlink"><symbol id="sprite.css" viewBox="0 0 244 206"><svg viewBox="-484.33 243.67 74.67 74.67" width="35" height="35" id="sprite-social--facebook" x="35"/><svg viewBox="-497.6 149 264.6 264.6" width="35" height="35" id="sprite-social--instagram" x="35" y="135.14"/><svg viewBox="-484.33 243.67 74.67 74.67" width="35" height="35" id="sprite-social--twitter" y="35"/><svg width="35" height="35" viewBox="-1194.67 -1194.67 4181.33 4181.33" id="sprite-ui--angle-double-left" x="35" y="35"/><svg width="35" height="35" viewBox="-1194.67 -1194.67 4181.33 4181.33" id="sprite-ui--angle-double-right" x="70"/><svg width="35" height="35" viewBox="-1194.67 -1194.67 4181.33 4181.33" id="sprite-ui--angle-left" x="70" y="35"/><svg width="35" height="35" viewBox="-1194.67 -1194.67 4181.33 4181.33" id="sprite-ui--angle-right" y="70"/><svg width="35" height="35" viewBox="-13.67 -12.67 44.33 44.33" id="sprite-ui--arrow-down" x="35" y="70"/><svg width="33.42" height="35" viewBox="-12.67 -12.67 42.33 44.33" id="sprite-ui--arrow-left" x="70" y="70"/><svg width="33.42" height="35" viewBox="-12.67 -12.67 42.33 44.33" id="sprite-ui--arrow-right" x="105"/><svg width="35" height="30.14" viewBox="-144 -144 504 434" id="sprite-ui--arrow462" y="105"/><svg width="35" height="30.14" viewBox="-144 -144 504 434" id="sprite-ui--arrow465" x="35" y="105"/><svg width="35" height="30.14" viewBox="-144 -144 504 434" id="sprite-ui--arrow466" x="70" y="105"/><svg width="35" height="30.14" viewBox="-144 -144 504 434" id="sprite-ui--arrow467" x="138.42000000000002"/><svg width="35" height="35" viewBox="-1194.67 -1194.67 4181.33 4181.33" id="sprite-ui--calendar" x="138.42000000000002" y="30.14"/><svg width="35" height="35" fill="#73b355" viewBox="-10.67 -10.67 37.33 37.33" id="sprite-ui--check" x="138.42000000000002" y="65.14"/><svg width="35" height="35" viewBox="-21.33 -21.33 74.67 74.67" id="sprite-ui--checkmark" y="135.14"/><svg width="35" height="35" viewBox="-1194.67 -1194.67 4181.33 4181.33" id="sprite-ui--chevron-circle-down"/><svg width="35" height="35" viewBox="-1194.67 -1194.67 4181.33 4181.33" id="sprite-ui--chevron-circle-up" x="70" y="135.14"/><svg width="35" height="35" viewBox="-1194.67 -1194.67 4181.33 4181.33" id="sprite-ui--chevron-down" x="105" y="135.14"/><svg width="35" height="35" viewBox="-1194.67 -1194.67 4181.33 4181.33" id="sprite-ui--chevron-left" x="173.42000000000002"/><svg width="35" height="35" viewBox="-1194.67 -1194.67 4181.33 4181.33" id="sprite-ui--chevron-right" x="173.42000000000002" y="35"/><svg width="35" height="35" viewBox="-1194.67 -1194.67 4181.33 4181.33" id="sprite-ui--chevron-up" x="173.42000000000002" y="70"/><svg width="35" height="35" viewBox="-32 -32 112 112" id="sprite-ui--circle-arrow-down" x="173.42000000000002" y="105"/><svg width="35" height="35" viewBox="-32 -32 112 112" id="sprite-ui--circle-arrow-up" y="170.14"/><svg width="35" height="35" viewBox="-17.33 -17.33 60.67 60.67" id="sprite-ui--close" x="35" y="170.14"/><svg width="35" height="35" viewBox="-21.33 -21.33 74.67 74.67" id="sprite-ui--delete" x="70" y="170.14"/><svg width="35" height="35" viewBox="-1194.67 -1194.67 4181.33 4181.33" id="sprite-ui--facebook" x="105" y="170.14"/><svg width="35" height="35" viewBox="-1194.67 -1194.67 4181.33 4181.33" id="sprite-ui--instagram" x="140" y="170.14"/><svg width="35" height="31.25" viewBox="-24 -24 84 75" id="sprite-ui--menu" x="138.42000000000002" y="100.14"/><svg width="35" height="35" viewBox="-21.33 -21.33 74.67 74.67" id="sprite-ui--minus" x="208.42000000000002"/><svg width="35" height="35" viewBox="-21.33 -21.33 74.67 74.67" id="sprite-ui--plus" x="208.42000000000002" y="35"/><svg width="35" height="35" viewBox="-1194.67 -1194.67 4181.33 4181.33" id="sprite-ui--quote-left" x="208.42000000000002" y="70"/><svg width="35" height="35" viewBox="-1194.67 -1194.67 4181.33 4181.33" id="sprite-ui--quote-right" x="208.42000000000002" y="105"/><svg width="35" height="35" viewBox="-1194.67 -1194.67 4181.33 4181.33" id="sprite-ui--twitter" x="208.42000000000002" y="140"/><path d="M-436.3 265h-21.3c-2.9 0-5.3 2.4-5.3 5.3v21.3c0 2.9 2.4 5.3 5.3 5.3h10.7v-14h-4v-4h4v-3c0-2.8 2.2-5 5-5h5v4h-5c-.6 0-1 .4-1 1v3h5.5l-1 4h-4.5v14h6.7c2.9 0 5.3-2.4 5.3-5.3v-21.3c-.1-2.9-2.5-5.3-5.4-5.3z"/><path d="M-321.9 272.5h-9.9c.7 2.8 1.1 5.7 1.1 8.7 0 19.2-15.6 34.8-34.8 34.8-19.2 0-34.8-15.6-34.8-34.8 0-3 .4-5.9 1.1-8.7h-9.9v47.9c0 2.4 2 4.4 4.4 4.4h78.4c2.4 0 4.4-1.9 4.4-4.4v-47.9zm0-30.5c0-2.4-1.9-4.4-4.4-4.4h-13.1c-2.4 0-4.4 1.9-4.4 4.4v13.1c0 2.4 1.9 4.4 4.4 4.4h13.1c2.4 0 4.4-2 4.4-4.4V242zm-43.5 17.4c-12 0-21.8 9.7-21.8 21.8 0 12 9.7 21.8 21.8 21.8s21.8-9.8 21.8-21.8-9.8-21.8-21.8-21.8m43.5 78.4H-409c-7.2 0-13.1-5.9-13.1-13.1v-87.1c0-7.2 5.8-13.1 13.1-13.1h87.1c7.2 0 13.1 5.8 13.1 13.1v87.1c0 7.3-5.9 13.1-13.1 13.1"/><path d="M-431 271.1c-1.2.5-2.4.9-3.8 1 1.4-.8 2.4-2.1 2.9-3.6-1.3.8-2.7 1.3-4.2 1.6-1.2-1.3-2.9-2.1-4.8-2.1-3.6 0-6.6 2.9-6.6 6.6 0 .5.1 1 .2 1.5-5.5-.3-10.3-2.9-13.5-6.9-.6 1-.9 2.1-.9 3.3 0 2.3 1.2 4.3 2.9 5.5-1.1 0-2.1-.3-3-.8v.1c0 3.2 2.3 5.8 5.3 6.4-.5.1-1.1.2-1.7.2-.4 0-.8 0-1.2-.1.8 2.6 3.3 4.5 6.1 4.6-2.2 1.8-5.1 2.8-8.2 2.8-.5 0-1.1 0-1.6-.1 2.9 1.9 6.4 3 10.1 3 12.1 0 18.7-10 18.7-18.7v-.9c1.3-1 2.4-2.1 3.3-3.4z"/><path d="M1011 1376q0 13-10 23l-50 50q-10 10-23 10t-23-10L439 983q-10-10-10-23t10-23l466-466q10-10 23-10t23 10l50 50q10 10 10 23t-10 23L608 960l393 393q10 10 10 23zm384 0q0 13-10 23l-50 50q-10 10-23 10t-23-10L823 983q-10-10-10-23t10-23l466-466q10-10 23-10t23 10l50 50q10 10 10 23t-10 23L992 960l393 393q10 10 10 23z"/><path d="M979 960q0 13-10 23l-466 466q-10 10-23 10t-23-10l-50-50q-10-10-10-23t10-23l393-393-393-393q-10-10-10-23t10-23l50-50q10-10 23-10t23 10l466 466q10 10 10 23zm384 0q0 13-10 23l-466 466q-10 10-23 10t-23-10l-50-50q-10-10-10-23t10-23l393-393-393-393q-10-10-10-23t10-23l50-50q10-10 23-10t23 10l466 466q10 10 10 23z"/><path d="M1203 544q0 13-10 23L800 960l393 393q10 10 10 23t-10 23l-50 50q-10 10-23 10t-23-10L631 983q-10-10-10-23t10-23l466-466q10-10 23-10t23 10l50 50q10 10 10 23z"/><path d="M1171 960q0 13-10 23l-466 466q-10 10-23 10t-23-10l-50-50q-10-10-10-23t10-23l393-393-393-393q-10-10-10-23t10-23l50-50q10-10 23-10t23 10l466 466q10 10 10 23z"/><path d="M16.549 2.555c0 .08-.02.16-.061.233l-7.56 13.891a.49.49 0 0 1-.858 0L.51 2.788a.49.49 0 0 1 .43-.72h15.121c.172 0 .332.091.42.237a.508.508 0 0 1 .068.25zM8.5 15.425l6.738-12.381H1.761L8.5 15.425z"/><path d="M15.831 17.097c-.08 0-.16-.02-.233-.06l-13.89-7.56a.49.49 0 0 1 0-.858l13.89-7.56a.487.487 0 0 1 .721.429v15.12a.49.49 0 0 1-.488.489zM2.963 9.048l12.38 6.739V2.31L2.963 9.048z"/><path d="M1.941 1c.08 0 .16.02.233.06l13.89 7.561a.49.49 0 0 1 0 .858l-13.89 7.56a.487.487 0 0 1-.721-.429V1.488A.49.49 0 0 1 1.941 1zM14.81 9.049L2.43 2.31v13.478l12.38-6.739z"/><path d="M165.316 60.412c-1.766-2.037-4.06-3.055-6.885-3.055h-57.355l23.871-23.872c2.064-2.063 3.096-4.535 3.096-7.414 0-2.878-1.031-5.35-3.096-7.414l-6.11-6.029c-2.063-2.063-4.508-3.096-7.332-3.096-2.879 0-5.351 1.032-7.414 3.096L51.052 65.586c-2.01 2.118-3.015 4.59-3.015 7.414 0 2.879 1.005 5.323 3.015 7.332l53.039 53.121c2.118 2.01 4.589 3.016 7.414 3.016 2.878 0 5.322-1.006 7.332-3.016l6.11-6.191c2.064-1.955 3.096-4.399 3.096-7.332 0-2.934-1.031-5.379-3.096-7.334l-23.871-23.953h57.355c2.825 0 5.119-1.018 6.885-3.055 1.765-2.037 2.647-4.494 2.647-7.373V67.786c.001-2.879-.882-5.337-2.647-7.374z"/><path d="M164.95 65.668l-53.039-53.039c-2.063-2.064-4.535-3.096-7.414-3.096-2.825 0-5.269 1.032-7.333 3.096l-6.11 6.11c-2.064 1.956-3.096 4.4-3.096 7.333s1.032 5.377 3.096 7.333l23.872 23.953H57.568c-2.824 0-5.119 1.018-6.884 3.055s-2.648 4.495-2.648 7.373v10.429c0 2.879.883 5.336 2.648 7.373s4.06 3.055 6.884 3.055h57.357l-23.872 23.873c-2.064 2.062-3.096 4.534-3.096 7.413s1.032 5.351 3.096 7.414l6.11 6.11c2.119 2.01 4.563 3.015 7.333 3.015 2.825 0 5.297-1.005 7.414-3.015l53.039-53.039c2.01-2.01 3.016-4.48 3.016-7.414 0-2.987-1.006-5.432-3.015-7.332z"/><path d="M168.452 62.53l-6.109-6.11c-2.118-2.01-4.59-3.015-7.413-3.015-2.88 0-5.324 1.005-7.334 3.015l-23.953 23.953V23.017c0-2.825-1.033-5.269-3.097-7.333s-4.508-3.096-7.332-3.096h-10.429c-2.824 0-5.269 1.033-7.332 3.096-2.065 2.064-3.096 4.508-3.096 7.333v57.356L68.404 56.42c-2.01-2.01-4.454-3.015-7.333-3.015-2.824 0-5.296 1.005-7.414 3.015l-6.029 6.11c-2.064 2.063-3.096 4.536-3.096 7.414 0 2.934 1.033 5.378 3.096 7.333l53.039 53.119c2.01 2.011 4.454 3.016 7.333 3.016 2.824 0 5.296-1.005 7.413-3.016l53.039-53.119c2.01-2.01 3.016-4.454 3.016-7.333 0-2.824-1.006-5.295-3.016-7.414z"/><path d="M168.452 69.089L115.413 16.05c-2.009-2.01-4.479-3.015-7.413-3.015-2.987 0-5.432 1.005-7.333 3.015L47.628 69.089c-2.064 2.064-3.096 4.536-3.096 7.415 0 2.824 1.033 5.268 3.096 7.332l6.11 6.11c1.956 2.063 4.4 3.097 7.333 3.097s5.377-1.034 7.333-3.097l23.953-23.872v57.357c0 2.823 1.018 5.119 3.055 6.885 2.037 1.765 4.495 2.647 7.373 2.647h10.429c2.879 0 5.336-.882 7.373-2.647s3.056-4.062 3.056-6.885V66.074l23.953 23.872c1.955 2.063 4.399 3.097 7.334 3.097 2.877 0 5.35-1.034 7.413-3.097l6.109-6.11c2.01-2.119 3.016-4.562 3.016-7.332 0-2.825-1.006-5.296-3.016-7.415z"/><path fill="#001F4E" d="M192 1664h288v-288H192v288zm352 0h320v-288H544v288zm-352-352h288V992H192v320zm352 0h320V992H544v320zM192 928h288V640H192v288zm736 736h320v-288H928v288zM544 928h320V640H544v288zm768 736h288v-288h-288v288zm-384-352h320V992H928v320zM576 448V160c0-8.667-3.167-16.167-9.5-22.5S552.667 128 544 128h-64c-8.667 0-16.167 3.167-22.5 9.5S448 151.333 448 160v288c0 8.667 3.167 16.167 9.5 22.5s13.833 9.5 22.5 9.5h64c8.667 0 16.167-3.167 22.5-9.5s9.5-13.833 9.5-22.5zm736 864h288V992h-288v320zM928 928h320V640H928v288zm384 0h288V640h-288v288zm32-480V160c0-8.667-3.167-16.167-9.5-22.5s-13.833-9.5-22.5-9.5h-64c-8.667 0-16.167 3.167-22.5 9.5s-9.5 13.833-9.5 22.5v288c0 8.667 3.167 16.167 9.5 22.5s13.833 9.5 22.5 9.5h64c8.667 0 16.167-3.167 22.5-9.5s9.5-13.833 9.5-22.5zm384-64v1280c0 34.667-12.667 64.667-38 90s-55.333 38-90 38H192c-34.667 0-64.667-12.667-90-38s-38-55.333-38-90V384c0-34.667 12.667-64.667 38-90s55.333-38 90-38h128v-96c0-44 15.667-81.667 47-113S436 0 480 0h64c44 0 81.667 15.667 113 47s47 69 47 113v96h384v-96c0-44 15.667-81.667 47-113s69-47 113-47h64c44 0 81.667 15.667 113 47s47 69 47 113v96h128c34.667 0 64.667 12.667 90 38s38 55.333 38 90z"/><path d="M6.464 13.676a.502.502 0 0 1-.707 0L.797 8.721a.502.502 0 0 1 0-.707l1.405-1.407a.5.5 0 0 1 .707 0l2.849 2.848a.504.504 0 0 0 .707 0l6.629-6.626a.502.502 0 0 1 .707 0l1.404 1.404a.504.504 0 0 1 0 .707l-8.741 8.736z"/><path fill="#0B80A5" d="M28.48 4.277c-.371-.368-.807-.554-1.311-.554-.502 0-.939.186-1.309.554L12.278 17.862l-6.14-6.137a1.79 1.79 0 0 0-1.309-.555c-.503 0-.94.187-1.31.555L.552 14.693A1.79 1.79 0 0 0 0 16c0 .505.186.941.553 1.31l10.416 10.414c.369.369.803.553 1.31.553.502 0 .939-.184 1.31-.553l17.86-17.859c.365-.369.551-.805.551-1.31 0-.506-.186-.939-.553-1.309L28.48 4.277z"/><path d="M941 1299l454-454q19-19 19-45t-19-45l-102-102q-19-19-45-19t-45 19L896 960 589 653q-19-19-45-19t-45 19L397 755q-19 19-19 45t19 45l454 454q19 19 45 19t45-19zm723-403q0 209-103 385.5T1281.5 1561 896 1664t-385.5-103T231 1281.5 128 896t103-385.5T510.5 231 896 128t385.5 103T1561 510.5 1664 896z"/><path d="M1293 1139l102-102q19-19 19-45t-19-45L941 493q-19-19-45-19t-45 19L397 947q-19 19-19 45t19 45l102 102q19 19 45 19t45-19l307-307 307 307q19 19 45 19t45-19zm371-243q0 209-103 385.5T1281.5 1561 896 1664t-385.5-103T231 1281.5 128 896t103-385.5T510.5 231 896 128t385.5 103T1561 510.5 1664 896z"/><path d="M1683 808l-742 741q-19 19-45 19t-45-19L109 808q-19-19-19-45.5t19-45.5l166-165q19-19 45-19t45 19l531 531 531-531q19-19 45-19t45 19l166 165q19 19 19 45.5t-19 45.5z"/><path d="M1427 301L896 832l531 531q19 19 19 45t-19 45l-166 166q-19 19-45 19t-45-19L429 877q-19-19-19-45t19-45l742-742q19-19 45-19t45 19l166 166q19 19 19 45t-19 45z"/><path d="M1363 877l-742 742q-19 19-45 19t-45-19l-166-166q-19-19-19-45t19-45l531-531-531-531q-19-19-19-45t19-45L531 45q19-19 45-19t45 19l742 742q19 19 19 45t-19 45z"/><path d="M1683 1331l-166 165q-19 19-45 19t-45-19L896 965l-531 531q-19 19-45 19t-45-19l-166-165q-19-19-19-45.5t19-45.5l742-741q19-19 45-19t45 19l742 741q19 19 19 45.5t-19 45.5z"/><path d="M24.088 46.291c-12.424 0-22.531-10.107-22.531-22.531S11.664 1.229 24.088 1.229 46.619 11.336 46.619 23.76 36.512 46.291 24.088 46.291zm0-44.062c-11.873 0-21.531 9.659-21.531 21.531s9.659 21.531 21.531 21.531c11.872 0 21.531-9.658 21.531-21.531S35.96 2.229 24.088 2.229z"/><path d="M24.088 33.869a.502.502 0 0 1-.397-.195L11.239 17.438a.5.5 0 0 1 .794-.608l12.055 15.718L36.145 16.83a.5.5 0 0 1 .793.608L24.484 33.674a.499.499 0 0 1-.396.195z"/><path d="M24.088 1.229c12.424 0 22.531 10.107 22.531 22.531S36.512 46.291 24.088 46.291 1.557 36.184 1.557 23.76 11.664 1.229 24.088 1.229zm0 44.062c11.873 0 21.531-9.658 21.531-21.531S35.961 2.229 24.088 2.229c-11.872 0-21.531 9.658-21.531 21.531 0 11.872 9.659 21.531 21.531 21.531z"/><path d="M24.088 13.651c.155 0 .302.072.397.195l12.453 16.236a.5.5 0 1 1-.795.608L24.088 14.972 12.031 30.69a.5.5 0 0 1-.793-.608l12.453-16.236a.502.502 0 0 1 .397-.195z"/><g fill="none" stroke="#6E6F72" stroke-miterlimit="10"><path d="M1 1l23.891 23.892M24.891 1L1 24.892"/></g><circle stroke="#FFF" stroke-miterlimit="10" cx="16" cy="16" r="15"/><path stroke="#FFF" stroke-width="2" stroke-miterlimit="10" d="M24.418 23.5L8.501 7.583M8.5 23.5L24.418 7.583"/><path d="M1343 12v264h-157q-86 0-116 36t-30 108v189h293l-39 296h-254v759H734V905H479V609h255V391q0-186 104-288.5T1115 0q147 0 228 12z"/><path d="M1490 1426V778h-135q20 63 20 131 0 126-64 232.5T1137 1310t-240 62q-197 0-337-135.5T420 909q0-68 20-131H299v648q0 26 17.5 43.5T360 1487h1069q25 0 43-17.5t18-43.5zm-284-533q0-124-90.5-211.5T897 594q-127 0-217.5 87.5T589 893t90.5 211.5T897 1192q128 0 218.5-87.5T1206 893zm284-360V368q0-28-20-48.5t-49-20.5h-174q-29 0-49 20.5t-20 48.5v165q0 29 20 49t49 20h174q29 0 49-20t20-49zm174-208v1142q0 81-58 139t-139 58H325q-81 0-139-58t-58-139V325q0-81 58-139t139-58h1142q81 0 139 58t58 139z"/><path fill="#A6A8AC" d="M.84 1h34.32v5H.84zM.84 11h34.32v5H.84zM.84 21h34.32v5H.84z"/><circle stroke="#000" stroke-miterlimit="10" cx="16" cy="16" r="15"/><path stroke="#000" stroke-miterlimit="10" d="M24.938 16H7.062"/><circle stroke="#000" stroke-miterlimit="10" cx="16" cy="16" r="15"/><path stroke="#000" stroke-miterlimit="10" d="M16 7.063v17.875M24.938 16H7.062"/><path d="M832 960v384q0 80-56 136t-136 56H256q-80 0-136-56t-56-136V640q0-104 40.5-198.5T214 278t163.5-109.5T576 128h64q26 0 45 19t19 45v128q0 26-19 45t-45 19h-64q-106 0-181 75t-75 181v32q0 40 28 68t68 28h224q80 0 136 56t56 136zm896 0v384q0 80-56 136t-136 56h-384q-80 0-136-56t-56-136V640q0-104 40.5-198.5T1110 278t163.5-109.5T1472 128h64q26 0 45 19t19 45v128q0 26-19 45t-45 19h-64q-106 0-181 75t-75 181v32q0 40 28 68t68 28h224q80 0 136 56t56 136z"/><path d="M832 320v704q0 104-40.5 198.5T682 1386t-163.5 109.5T320 1536h-64q-26 0-45-19t-19-45v-128q0-26 19-45t45-19h64q106 0 181-75t75-181v-32q0-40-28-68t-68-28H256q-80 0-136-56T64 704V320q0-80 56-136t136-56h384q80 0 136 56t56 136zm896 0v704q0 104-40.5 198.5T1578 1386t-163.5 109.5T1216 1536h-64q-26 0-45-19t-19-45v-128q0-26 19-45t45-19h64q106 0 181-75t75-181v-32q0-40-28-68t-68-28h-224q-80 0-136-56t-56-136V320q0-80 56-136t136-56h384q80 0 136 56t56 136z"/><path d="M1684 408q-67 98-162 167 1 14 1 42 0 130-38 259.5T1369.5 1125 1185 1335.5t-258 146-323 54.5q-271 0-496-145 35 4 78 4 225 0 401-138-105-2-188-64.5T285 1033q33 5 61 5 43 0 85-11-112-23-185.5-111.5T172 710v-4q68 38 146 41-66-44-105-115t-39-154q0-88 44-163 121 149 294.5 238.5T884 653q-8-38-8-74 0-134 94.5-228.5T1199 256q140 0 236 102 109-21 205-78-37 115-142 178 93-10 186-50z"/></symbol></svg>